<svg xmlns="http://www.w3.org/2000/svg" xmlns:xlink="http://www.w3.org/1999/xlink" width="500" zoomAndPan="magnify" viewBox="0 0 375 374.999991" height="500" preserveAspectRatio="xMidYMid meet" version="1.0"><defs><g/><clipPath id="79bd78d420"><path d="M 83.824219 24.496094 L 290.824219 24.496094 L 290.824219 242.746094 L 83.824219 242.746094 Z M 83.824219 24.496094 " clip-rule="nonzero"/></clipPath></defs><g clip-path="url(#79bd78d420)"><path fill="#332c54" d="M 216.78125 242.746094 L 186.703125 242.746094 C 185.742188 242.746094 184.785156 242.699219 183.832031 242.601562 C 182.875 242.507812 181.929688 242.363281 180.988281 242.171875 C 180.046875 241.980469 179.117188 241.746094 178.199219 241.460938 C 177.285156 241.179688 176.382812 240.851562 175.5 240.476562 C 174.613281 240.105469 173.75 239.6875 172.90625 239.226562 C 172.066406 238.769531 171.246094 238.265625 170.453125 237.726562 C 169.660156 237.183594 168.898438 236.605469 168.164062 235.988281 C 167.429688 235.371094 166.726562 234.714844 166.054688 234.027344 C 165.386719 233.339844 164.753906 232.621094 164.15625 231.871094 C 163.558594 231.117188 162.996094 230.339844 162.476562 229.53125 C 161.957031 228.722656 161.480469 227.894531 161.042969 227.039062 C 160.605469 226.183594 160.210938 225.308594 159.863281 224.414062 C 159.511719 223.519531 159.207031 222.609375 158.949219 221.683594 C 158.691406 220.761719 158.476562 219.824219 158.3125 218.878906 C 158.148438 217.933594 158.027344 216.980469 157.957031 216.023438 C 157.886719 215.066406 157.863281 214.105469 157.890625 213.144531 L 158.808594 153.515625 L 179.242188 115.230469 L 141.285156 50.453125 C 140.597656 49.285156 139.773438 48.226562 138.8125 47.273438 C 137.851562 46.320312 136.78125 45.507812 135.609375 44.835938 C 134.433594 44.160156 133.195312 43.648438 131.886719 43.300781 C 130.582031 42.949219 129.25 42.773438 127.898438 42.769531 L 106.367188 42.769531 L 156.53125 128.6875 C 156.742188 129.070312 156.914062 129.46875 157.046875 129.886719 C 157.175781 130.304688 157.265625 130.730469 157.3125 131.164062 C 157.359375 131.601562 157.367188 132.035156 157.328125 132.472656 C 157.289062 132.90625 157.210938 133.335938 157.085938 133.753906 C 156.964844 134.175781 156.800781 134.578125 156.601562 134.96875 C 156.398438 135.355469 156.160156 135.71875 155.886719 136.0625 C 155.613281 136.402344 155.308594 136.714844 154.972656 136.996094 C 154.640625 137.277344 154.28125 137.519531 153.898438 137.730469 C 153.511719 137.941406 153.113281 138.113281 152.695312 138.246094 C 152.28125 138.375 151.855469 138.464844 151.417969 138.511719 C 150.984375 138.5625 150.550781 138.566406 150.113281 138.527344 C 149.679688 138.488281 149.25 138.410156 148.832031 138.285156 C 148.410156 138.164062 148.007812 138 147.621094 137.800781 C 147.230469 137.597656 146.867188 137.359375 146.527344 137.085938 C 146.1875 136.8125 145.875 136.507812 145.59375 136.171875 C 145.3125 135.835938 145.066406 135.476562 144.859375 135.09375 L 83.886719 29.460938 L 127.898438 29.460938 C 129.148438 29.464844 130.394531 29.546875 131.636719 29.710938 C 132.875 29.875 134.101562 30.117188 135.308594 30.441406 C 136.515625 30.765625 137.699219 31.164062 138.855469 31.640625 C 140.015625 32.117188 141.136719 32.667969 142.21875 33.289062 C 143.304688 33.914062 144.347656 34.601562 145.34375 35.359375 C 146.339844 36.117188 147.28125 36.9375 148.171875 37.816406 C 149.0625 38.695312 149.890625 39.628906 150.660156 40.617188 C 151.429688 41.605469 152.128906 42.640625 152.765625 43.71875 L 186.589844 101.449219 L 219.539062 39.75 C 220.148438 38.601562 220.832031 37.5 221.59375 36.449219 C 222.351562 35.394531 223.179688 34.394531 224.074219 33.453125 C 224.96875 32.511719 225.921875 31.632812 226.9375 30.820312 C 227.949219 30.007812 229.015625 29.265625 230.128906 28.597656 C 231.242188 27.929688 232.394531 27.339844 233.589844 26.828125 C 234.78125 26.3125 236.003906 25.882812 237.257812 25.539062 C 238.507812 25.191406 239.777344 24.929688 241.066406 24.757812 C 242.351562 24.582031 243.644531 24.496094 244.945312 24.496094 L 290.757812 24.496094 L 221.527344 150.539062 C 221 151.492188 220.359375 152.363281 219.605469 153.148438 C 218.847656 153.933594 218.003906 154.605469 217.070312 155.167969 C 216.136719 155.730469 215.144531 156.160156 214.097656 156.457031 C 213.050781 156.757812 211.980469 156.914062 210.890625 156.929688 L 210.726562 156.929688 C 209.648438 156.929688 208.59375 156.789062 207.554688 156.511719 C 206.511719 156.234375 205.527344 155.828125 204.59375 155.292969 C 203.664062 154.757812 202.8125 154.109375 202.050781 153.351562 C 201.285156 152.59375 200.632812 151.75 200.089844 150.820312 L 187.128906 128.695312 L 172.015625 157.011719 L 171.179688 213.496094 C 171.167969 214.011719 171.179688 214.527344 171.21875 215.042969 C 171.253906 215.5625 171.320312 216.074219 171.410156 216.582031 C 171.496094 217.09375 171.613281 217.597656 171.75 218.09375 C 171.890625 218.59375 172.054688 219.082031 172.242188 219.5625 C 172.433594 220.046875 172.644531 220.515625 172.878906 220.976562 C 173.113281 221.4375 173.371094 221.882812 173.652344 222.320312 C 173.933594 222.753906 174.234375 223.171875 174.558594 223.578125 C 174.878906 223.980469 175.21875 224.371094 175.582031 224.738281 C 175.941406 225.109375 176.320312 225.460938 176.714844 225.792969 C 177.113281 226.125 177.523438 226.4375 177.949219 226.730469 C 178.378906 227.019531 178.820312 227.289062 179.273438 227.539062 C 179.726562 227.785156 180.191406 228.007812 180.667969 228.210938 C 181.144531 228.410156 181.628906 228.585938 182.125 228.738281 C 182.617188 228.890625 183.117188 229.019531 183.625 229.121094 C 184.132812 229.222656 184.640625 229.296875 185.15625 229.351562 C 185.671875 229.402344 186.1875 229.425781 186.703125 229.425781 L 203.488281 229.425781 L 203.488281 210.804688 L 187.339844 186.414062 C 187.097656 186.050781 186.894531 185.664062 186.726562 185.257812 C 186.5625 184.855469 186.4375 184.4375 186.351562 184.007812 C 186.269531 183.574219 186.226562 183.140625 186.230469 182.703125 C 186.230469 182.265625 186.273438 181.832031 186.363281 181.402344 C 186.449219 180.972656 186.578125 180.554688 186.746094 180.152344 C 186.917969 179.75 187.125 179.363281 187.367188 179 C 187.613281 178.636719 187.890625 178.300781 188.203125 177.996094 C 188.511719 177.6875 188.851562 177.410156 189.214844 177.167969 C 189.582031 176.925781 189.96875 176.722656 190.371094 176.558594 C 190.777344 176.390625 191.195312 176.269531 191.625 176.183594 C 192.054688 176.101562 192.488281 176.058594 192.925781 176.0625 C 193.363281 176.066406 193.796875 176.109375 194.226562 176.199219 C 194.65625 176.285156 195.070312 176.414062 195.476562 176.582031 C 195.878906 176.753906 196.261719 176.960938 196.625 177.207031 C 196.988281 177.453125 197.324219 177.730469 197.628906 178.042969 C 197.9375 178.355469 198.214844 178.691406 198.453125 179.058594 L 216.816406 206.792969 Z M 194.484375 114.929688 L 210.691406 142.601562 L 268.253906 37.816406 L 244.953125 37.816406 C 243.546875 37.8125 242.167969 38 240.8125 38.375 C 239.457031 38.75 238.175781 39.296875 236.972656 40.019531 C 235.765625 40.742188 234.679688 41.617188 233.710938 42.636719 C 232.742188 43.65625 231.929688 44.785156 231.269531 46.027344 Z M 194.484375 114.929688 " fill-opacity="1" fill-rule="nonzero"/></g><g fill="#332c54" fill-opacity="1"><g transform="translate(87.938002, 307.810404)"><g><path d="M 30.171875 -32.5 L 19.28125 -14.515625 L 19.28125 0 L 10.125 0 L 10.125 -14.0625 L -1.328125 -32.5 L 8.875 -32.5 L 15.015625 -22.390625 L 20.640625 -32.5 Z M 30.171875 -32.5 "/></g></g></g><g fill="#332c54" fill-opacity="1"><g transform="translate(128.503212, 307.810404)"><g><path d="M 23.765625 -32.5 L 32.734375 -32.5 L 32.828125 -14.703125 C 32.859375 -11.703125 32.242188 -9.054688 30.984375 -6.765625 C 29.734375 -4.484375 27.976562 -2.703125 25.71875 -1.421875 C 23.46875 -0.140625 20.847656 0.5 17.859375 0.5 C 12.972656 0.5 9.207031 -0.71875 6.5625 -3.15625 C 3.925781 -5.601562 2.609375 -9.222656 2.609375 -14.015625 L 2.609375 -32.5 L 11.765625 -32.5 L 11.765625 -14.46875 C 11.765625 -12 12.335938 -10.226562 13.484375 -9.15625 C 14.628906 -8.082031 16.101562 -7.546875 17.90625 -7.546875 C 19.789062 -7.546875 21.257812 -8.125 22.3125 -9.28125 C 23.363281 -10.445312 23.878906 -12.359375 23.859375 -15.015625 Z M 23.765625 -32.5 "/></g></g></g><g fill="#332c54" fill-opacity="1"><g transform="translate(175.386308, 307.810404)"><g><path d="M 13.6875 0.453125 C 9.59375 0.453125 6.398438 -0.414062 4.109375 -2.15625 C 1.828125 -3.894531 0.535156 -6.425781 0.234375 -9.75 L 8.703125 -10.984375 C 8.765625 -9.828125 9.273438 -8.890625 10.234375 -8.171875 C 11.191406 -7.453125 12.4375 -7.09375 13.96875 -7.09375 C 16.769531 -7.09375 18.171875 -7.828125 18.171875 -9.296875 C 18.171875 -9.960938 17.78125 -10.5 17 -10.90625 C 16.226562 -11.320312 14.957031 -11.742188 13.1875 -12.171875 C 9.40625 -13.085938 6.628906 -14.304688 4.859375 -15.828125 C 3.085938 -17.359375 2.21875 -19.515625 2.25 -22.296875 C 2.269531 -24.398438 2.820312 -26.253906 3.90625 -27.859375 C 5 -29.460938 6.523438 -30.710938 8.484375 -31.609375 C 10.453125 -32.515625 12.765625 -32.96875 15.421875 -32.96875 C 18.691406 -32.96875 21.382812 -32.140625 23.5 -30.484375 C 25.625 -28.835938 26.835938 -26.597656 27.140625 -23.765625 L 19.140625 -22.390625 C 18.984375 -23.273438 18.515625 -24 17.734375 -24.5625 C 16.960938 -25.125 16.023438 -25.40625 14.921875 -25.40625 C 13.890625 -25.40625 13.054688 -25.195312 12.421875 -24.78125 C 11.796875 -24.375 11.484375 -23.820312 11.484375 -23.125 C 11.484375 -22.476562 11.796875 -21.914062 12.421875 -21.4375 C 13.054688 -20.96875 14.242188 -20.519531 15.984375 -20.09375 C 18.484375 -19.488281 20.578125 -18.796875 22.265625 -18.015625 C 23.960938 -17.234375 25.242188 -16.234375 26.109375 -15.015625 C 26.984375 -13.796875 27.421875 -12.191406 27.421875 -10.203125 C 27.421875 -8.097656 26.847656 -6.242188 25.703125 -4.640625 C 24.554688 -3.046875 22.953125 -1.796875 20.890625 -0.890625 C 18.835938 0.00390625 16.4375 0.453125 13.6875 0.453125 Z M 13.6875 0.453125 "/></g></g></g><g fill="#332c54" fill-opacity="1"><g transform="translate(214.898544, 307.810404)"><g><path d="M 23.765625 -32.5 L 32.734375 -32.5 L 32.828125 -14.703125 C 32.859375 -11.703125 32.242188 -9.054688 30.984375 -6.765625 C 29.734375 -4.484375 27.976562 -2.703125 25.71875 -1.421875 C 23.46875 -0.140625 20.847656 0.5 17.859375 0.5 C 12.972656 0.5 9.207031 -0.71875 6.5625 -3.15625 C 3.925781 -5.601562 2.609375 -9.222656 2.609375 -14.015625 L 2.609375 -32.5 L 11.765625 -32.5 L 11.765625 -14.46875 C 11.765625 -12 12.335938 -10.226562 13.484375 -9.15625 C 14.628906 -8.082031 16.101562 -7.546875 17.90625 -7.546875 C 19.789062 -7.546875 21.257812 -8.125 22.3125 -9.28125 C 23.363281 -10.445312 23.878906 -12.359375 23.859375 -15.015625 Z M 23.765625 -32.5 "/></g></g></g><g fill="#332c54" fill-opacity="1"><g transform="translate(261.781637, 307.810404)"><g><path d="M 25.3125 -24.671875 L 11.765625 -24.671875 L 11.765625 -19.828125 L 24.125 -19.828125 L 24.125 -12 L 11.765625 -12 L 11.765625 0 L 2.75 0 L 2.75 -32.5 L 25.3125 -32.5 Z M 25.3125 -24.671875 "/></g></g></g></svg>